Portugal 1809

Snabbrörliga, intensiv actionäventyr filmat på plats i Krim, Portugal och England leder till skärmen alla fara, romantik och ren spektakel av en av de blodigaste perioderna i engelska krigföring. Richard Sharpe stiger i graderna av Wellingtons armé genom sitt modiga och vågade bedrifter. Han och hans män fungerar bakom franska linjerna, riskerar sina liv för att undergräva Napoleons styrkor.





Format                           : AVI
Format/Info                      : Audio Video Interleave
File size                        : 967 MiB
Duration                         : 1h 40mn
Overall bit rate                 : 1 341 Kbps
Writing application              : Lavf52.31.0

Video
ID                               : 0
Format                           : MPEG-4 Visual
Format profile                   : Simple@L1
Format settings, BVOP            : No
Format settings, QPel            : No
Format settings, GMC             : No warppoints
Format settings, Matrix          : Default (H.263)
Codec ID                         : FMP4
Duration                         : 1h 40mn
Bit rate                         : 1 200 Kbps
Width                            : 720 pixels
Height                           : 576 pixels
Display aspect ratio             : 4:3
Frame rate                       : 25.000 fps
Standard                         : PAL
Color space                      : YUV
Chroma subsampling               : 4:2:0
Bit depth                        : 8 bits
Scan type                        : Progressive
Bits/(Pixel*Frame)               : 0.116
Stream size                      : 865 MiB (89%)
Writing library                  : Lavc52.20.0

Audio
ID                               : 1
Format                           : MPEG Audio
Format version                   : Version 1
Format profile                   : Layer 3
Mode                             : Joint stereo
Codec ID                         : 55
Codec ID/Hint                    : MP3
Duration                         : 1h 40mn
Bit rate mode                    : Constant
Bit rate                         : 128 Kbps
Channel(s)                       : 2 channels
Sampling rate                    : 48.0 KHz
Stream size                      : 92.3 MiB (10%)
Alignment                        : Aligned on interleaves
Interleave, duration             : 24 ms (0.60 video frame)
Writing library                  : LAME3.97

		